# xmcd
# 
# Track frame offsets:
#     150
#     14220
#     25617
#     38320
#     51090
#     61887
#     76962
#     102795
#     132657
#     150770
#     173485
#     194992
# 
# Disc length: 2845
# 
# Revision: 0
# Processed by: cddbd v1.5.2PL0 Copyright (c) Steve Scherf et al.
# Submitted via: BonkEnc v1.0.15
# 
DISCID=8f0b1b0c
DTITLE=Otis Rush - Moaning And Groaning
DYEAR=0
DGENRE=Blues
TTITLE0=I Can't Quit You Baby
TTITLE1=Violent Love
TTITLE2=She's A Good 'Un
TTITLE3=It Takes Time
TTITLE4=Keep On Loving Me Baby
TTITLE5=Tore Up
TTITLE6=Take A Look Behind
TTITLE7=Society Woman
TTITLE8=Tops
TTITLE9=Gambler's Blues
TTITLE10=All Your Love
TTITLE11=Double Trouble
EXTD=Blues and Soul Records Vol.39
EXTT0=
EXTT1=
EXTT2=
EXTT3=
EXTT4=
EXTT5=
EXTT6=
EXTT7=
EXTT8=
EXTT9=
EXTT10=
EXTT11=
PLAYORDER=
